<?xml version="1.0" encoding="UTF-8"?><svg id="Layer_1" xmlns="http://www.w3.org/2000/svg" width="315.57" height="174.28" viewBox="0 0 315.57 174.28"><defs><style>.cls-1{fill:#3c4249;}</style></defs><g><path class="cls-1" d="M9.34,146.28v-19.88h6.75c2.11,0,3.87,.44,5.28,1.33,1.41,.89,2.47,2.08,3.18,3.58s1.06,3.17,1.06,5c0,2.02-.39,3.77-1.16,5.26-.77,1.49-1.88,2.65-3.3,3.47-1.43,.82-3.11,1.23-5.05,1.23h-6.75Zm14.31-9.97c0-1.59-.29-3-.88-4.23-.59-1.23-1.44-2.2-2.56-2.9-1.12-.7-2.49-1.05-4.12-1.05h-4.79v16.41h4.79c1.64,0,3.02-.36,4.14-1.09,1.12-.73,1.97-1.71,2.55-2.95,.58-1.24,.87-2.64,.87-4.19Z"/><path class="cls-1" d="M38.26,126.4h13.47v1.74h-11.03v7.14h9.52v1.74h-9.52v7.53h11.28v1.74h-13.19v-6.22h-7.25l-3.95,6.22h-2.13l12.8-19.88Zm.39,11.93v-9.58l-6.22,9.58h6.22Z"/><path class="cls-1" d="M73.2,146.28v-16.18l-7.2,12.57h-1.23l-7.22-12.57v16.18h-1.96v-19.88h2.02l7.76,13.61,7.81-13.61h1.99v19.88h-1.96Z"/><path class="cls-1" d="M80.15,146.28v-19.88h8.23c.86,0,1.65,.18,2.37,.53,.72,.35,1.34,.84,1.86,1.44,.52,.61,.93,1.28,1.23,2.02,.3,.74,.45,1.49,.45,2.25,0,1.08-.24,2.1-.71,3.07s-1.14,1.74-2,2.34c-.86,.6-1.87,.9-3.02,.9h-6.44v7.34h-1.96Zm1.96-9.07h6.36c.78,0,1.46-.21,2.04-.64,.58-.43,1.03-.99,1.34-1.68,.32-.69,.48-1.44,.48-2.24s-.19-1.58-.56-2.27-.86-1.24-1.47-1.64c-.61-.4-1.27-.6-2-.6h-6.19v9.07Z"/><path class="cls-1" d="M110.92,144.54v1.74h-13.36v-19.88h13.1v1.74h-11.14v7.17h9.72v1.65h-9.72v7.59h11.4Z"/><path class="cls-1" d="M126.12,130.12c-.28-.32-.61-.6-.98-.85-.37-.25-.79-.47-1.26-.66-.47-.19-.97-.34-1.5-.45-.53-.11-1.1-.17-1.69-.17-1.74,0-3.01,.33-3.82,.99-.81,.66-1.22,1.56-1.22,2.7,0,.78,.19,1.4,.57,1.85,.38,.45,.98,.81,1.81,1.09,.82,.28,1.87,.57,3.14,.87,1.42,.3,2.64,.65,3.67,1.06,1.03,.41,1.82,.96,2.38,1.66,.56,.7,.84,1.65,.84,2.84,0,.91-.18,1.71-.53,2.38-.35,.67-.85,1.23-1.48,1.68-.63,.45-1.39,.78-2.27,.99s-1.84,.32-2.88,.32-2.01-.11-2.95-.32-1.83-.53-2.67-.95c-.84-.42-1.62-.96-2.35-1.61l.98-1.6c.35,.37,.78,.72,1.27,1.05,.49,.33,1.04,.62,1.65,.88,.61,.26,1.26,.46,1.96,.6,.7,.14,1.42,.21,2.17,.21,1.59,0,2.82-.29,3.71-.87,.89-.58,1.33-1.43,1.33-2.57,0-.82-.22-1.48-.67-1.97s-1.12-.9-2.02-1.22c-.9-.32-2-.62-3.3-.92-1.38-.32-2.55-.67-3.5-1.06-.95-.39-1.67-.91-2.14-1.55-.48-.64-.71-1.5-.71-2.56,0-1.23,.3-2.27,.91-3.12,.61-.85,1.44-1.49,2.51-1.93,1.06-.44,2.29-.66,3.67-.66,.88,0,1.69,.09,2.45,.27,.76,.18,1.46,.43,2.1,.77,.64,.34,1.25,.76,1.81,1.26l-.95,1.57Z"/><path class="cls-1" d="M145.58,128.13h-7.08v18.14h-1.96v-18.14h-7.08v-1.74h16.13v1.74Z"/><path class="cls-1" d="M156.64,146.42c-1.57,0-2.89-.28-3.98-.84-1.08-.56-1.94-1.31-2.58-2.25-.63-.94-1.1-2.01-1.39-3.21-.29-1.19-.43-2.43-.43-3.7v-10.02h1.93v10.02c0,1.03,.11,2.03,.32,3.02,.21,.99,.56,1.88,1.05,2.66,.49,.78,1.14,1.4,1.96,1.86,.82,.46,1.85,.69,3.08,.69s2.32-.24,3.15-.71c.83-.48,1.48-1.11,1.96-1.89s.82-1.67,1.02-2.65c.21-.98,.31-1.97,.31-2.98v-10.02h1.96v10.02c0,1.33-.15,2.59-.45,3.81s-.78,2.28-1.44,3.19c-.66,.91-1.53,1.64-2.59,2.18-1.06,.54-2.36,.81-3.89,.81Z"/><path class="cls-1" d="M183.05,144.54v1.74h-13.36v-19.88h13.1v1.74h-11.14v7.17h9.72v1.65h-9.72v7.59h11.4Z"/><path class="cls-1" d="M186.74,146.28v-19.88h1.96v11.55l10.95-11.58h2.16l-8.12,8.75,8.54,11.16h-2.21l-7.59-9.98-3.72,3.87v6.11h-1.96Z"/><path class="cls-1" d="M218.1,144.54v1.74h-13.36v-19.88h13.1v1.74h-11.14v7.17h9.72v1.65h-9.72v7.59h11.4Z"/><path class="cls-1" d="M221.8,146.28v-19.88h8.4c.86,0,1.64,.18,2.35,.53,.71,.35,1.33,.84,1.86,1.44,.53,.61,.94,1.28,1.23,2.02,.29,.74,.43,1.49,.43,2.25,0,.95-.18,1.85-.55,2.69-.36,.84-.88,1.55-1.54,2.13-.66,.58-1.44,.96-2.34,1.15l4.87,7.67h-2.21l-4.68-7.34h-5.88v7.34h-1.96Zm1.96-9.07h6.5c.78,0,1.46-.21,2.04-.64,.58-.43,1.03-.99,1.34-1.69,.32-.7,.48-1.44,.48-2.23s-.18-1.54-.55-2.23c-.36-.68-.85-1.23-1.46-1.65s-1.28-.63-2.03-.63h-6.33v9.07Z"/><path class="cls-1" d="M246.16,126.4h1.65l8.26,19.88h-2.07l-2.48-6.22h-9.09l-2.49,6.22h-2.1l8.32-19.88Zm4.74,12.12l-3.93-9.83-3.93,9.83h7.86Z"/><path class="cls-1" d="M276.54,146.28v-16.18l-7.2,12.57h-1.23l-7.22-12.57v16.18h-1.96v-19.88h2.02l7.76,13.61,7.81-13.61h1.99v19.88h-1.96Z"/><path class="cls-1" d="M283.48,146.28v-19.88h1.96v19.88h-1.96Z"/><path class="cls-1" d="M290.43,146.28v-19.88h1.96v11.55l10.95-11.58h2.16l-8.12,8.75,8.54,11.16h-2.21l-7.59-9.98-3.72,3.87v6.11h-1.96Z"/></g><path class="cls-1" d="M120.65,116c-1.27,0-2.35-.57-3.23-1.69-.88-1.13-1.52-2.43-1.91-3.9-.39-1.47-.59-2.6-.59-3.38,0-2.35,.76-5.76,2.28-10.22,1.52-4.46,3.53-9.46,6.03-14.99,2.5-5.54,5.29-11.12,8.38-16.76,3.09-5.63,6.17-10.83,9.26-15.58,3.09-4.75,6-8.57,8.75-11.47,2.74-2.89,5-4.34,6.76-4.34,.98,0,2.35,.49,4.12,1.47,1.76,.98,2.69,2.01,2.79,3.09,.1,.39-.96,1.89-3.16,4.48-2.21,2.6-5.02,5.93-8.45,10-3.43,4.07-7.03,8.55-10.8,13.45-3.77,4.9-7.33,9.9-10.66,14.99-3.33,5.1-5.98,9.97-7.94,14.63-1.96,4.66-2.75,8.75-2.35,12.27,.1,.59,.24,1.08,.44,1.47,.2,.39,.64,.59,1.32,.59,1.08,0,2.01-.32,2.79-.96,.78-.64,1.32-.96,1.62-.96,.2,0,.34,.25,.44,.73,.2,1.67-.32,3.26-1.54,4.78-1.23,1.52-2.67,2.28-4.34,2.28Zm18.38-3.09c-.69,0-1.84-.17-3.45-.51-1.62-.34-3.14-.78-4.56-1.32-1.42-.54-2.18-1.1-2.28-1.69,0-.59,.56-.98,1.69-1.18,1.13-.2,2.3-.32,3.53-.37,1.22-.05,1.93-.07,2.13-.07,3.62,0,7.79-.68,12.5-2.06,4.7-1.37,9.55-3.28,14.55-5.73,5-2.45,9.8-5.29,14.41-8.53,4.6-3.23,8.75-6.78,12.42-10.66,3.67-3.87,6.49-7.86,8.45-11.98,1.96-4.12,2.69-8.23,2.21-12.35-.59-5.09-2.08-9.24-4.48-12.42-2.4-3.18-5.44-5.68-9.11-7.5-3.67-1.81-7.64-3.11-11.91-3.9-4.26-.78-8.55-1.27-12.86-1.47-4.31-.19-8.33-.29-12.05-.29s-7.35,.1-11.17,.29c-3.82,.2-7.4,.83-10.73,1.91-.98,.29-1.96,.59-2.94,.88-.98,.29-2.01,.44-3.09,.44-.1,0-.39-.02-.88-.07-.49-.05-.73-.22-.73-.51-.2-1.37,.44-2.55,1.91-3.53,1.47-.98,3.36-1.81,5.66-2.5,2.3-.68,4.7-1.22,7.2-1.62,2.5-.39,4.78-.66,6.84-.81,2.06-.15,3.53-.22,4.41-.22,4.61,0,9.46,.22,14.55,.66,5.09,.44,10.14,1.32,15.14,2.65,5,1.32,9.6,3.21,13.82,5.66,4.21,2.45,7.69,5.69,10.44,9.7,2.74,4.02,4.46,9.02,5.15,14.99,.1,.59,.15,1.18,.15,1.76v1.62c0,5.88-1.45,11.39-4.34,16.54-2.89,5.15-6.76,9.8-11.61,13.96-4.85,4.17-10.22,7.77-16.1,10.8-5.88,3.04-11.86,5.37-17.93,6.98-6.08,1.62-11.71,2.43-16.91,2.43Z"/></svg>