<?xml version="1.0" encoding="UTF-8"?><svg id="Layer_1" xmlns="http://www.w3.org/2000/svg" width="2803.04" height="1790" viewBox="0 0 2803.04 1790"><defs><style>.cls-1{fill:#3c4249;}.cls-2{fill:#707071;}.cls-3{fill:#585a61;}</style></defs><g id="Rectangle_6"><rect class="cls-1" x="540.68" y="386.19" width="1596" height="960"/><path class="cls-2" d="M2136.68,1346.19H540.68V386.19h1596v960Zm-1595-1h1594V387.19H541.68v958Z"/></g><g><path class="cls-3" d="M2258.39,1426.86c-20.06,5.01-40.33,2.7-60.49,1.33-21.2-1.44-40.62-7.06-59.67-18.2-20-11.7-44.29-10.66-67.24-10-31.91,.92-62.82-3.97-93.94-13.33,5.83-7.64,17.37,2.29,22.33-9.2-22.51-.19-16.18-11.44-9.97-23.4,2.41-4.65,1.57-7.59-5.85-7.52-7.6,.07-8.13-3.46-2.55-10.26,1.05-1.28,1.35-2.03,.41-3.45-7.88-11.93-11.62-28.58-30.81-27.72-8.48,.38-7.79-5.36-8.03-10.74-2.96-67.4-15-132.6-42.29-194.96-9.48-21.66-11.88-46.15-14.5-70.59,9.73,10,21.84,13.35,34.05,15.97,6.81,1.46,6.8,7.17,8.54,11.51,2.17,5.43,6.34,8.52,10.97,7.03,4.58-1.47,6.96-5.72,2.7-11.4-2.51-3.34,.26-7.62,3.01-10.51,6.7-7.03,6.08-14.62-2.91-19.41-5.94-3.16-10.57-8.56-17.84-9.69-3.7-.58-6.44-.8-9.13,1.97-3.47,3.56-.3,6.37,1.17,9.06,1.36,2.48,4.1,4.22,5.37,6.73,.61,1.21-.23,4.02-1.37,5.06-1.89,1.73-3.66,0-4.52-1.81-4.09-8.57-9.42-15.63-18.85-19.16-3.48-1.31-3.99-5.22-2.53-8.87,1.41-3.51,21.15-10.59,24.76-8.89,1.69,.79,3.36,2.35,5.3,.59,1.73-1.57,1.26-2.99,.16-4.97-4.58-8.23,.31-12.16,7.01-15.87,8.64-4.78,9.25,3.02,12.55,7.09,2.98,3.68,3.74,11.78,12.32,4.56,2.19-1.84,2.91,7.77,4.83,11.73,1.43,2.94-1.61,9.47,5.31,8.96,8.76-.64,3.6-7.1,4.38-11.06,2.89-14.74-7.19-29.45,.39-44.7,1.38-2.77-4.61-13.07-8.33-13.76-9.23-1.72-9.29-8.19-10.57-14.12-3.79-17.46-5.06-35.59-9.17-52.68-3.25-13.52-1.18-28.4-9.07-40.8-5-7.86-3.02-14.5,1.26-22.52,7.56-14.19,12.8-29.54,15.79-45.54,.61-3.24,1.68-7.26,3.99-9.19,16.59-13.91,21.17-36.95,38.57-50.19,6.81-5.18,6.23-11.33,5.92-20.02-.6-16.86-15.65-29.34-15.1-41.83,.78-17.73-11.84-24.53-17-36.72-3.08-7.29,.39-13.23,4.96-17.09,13.55-11.44,10.42-28.19,15.72-42.18-2.19,2.22-3.8,4.51-6.69,5.02-2.65-2.66-1.59-5.98-.34-7,9.64-7.82,2.48-11.93-3.15-16.71-7.72-6.55-18.03-10.3-22.91-19.92-5.74-11.32-9-25.17-.34-34.23,11.5-12.04,27.74-18.23,45.41-14.39,10.77,2.34,21.62,5.05,31.82,9.14,10.77,4.32,16.28-.82,23.52-7.66,12.51-11.82,19.44-27.59,31.7-39.72,31.82-31.49,64.78-21.66,94.47-1.24,3.01,2.07,1.64,13.13,9.85,5.06,.56,.72,1.12,1.45,1.68,2.17-11.87,8.91,6.65,16.09,1.76,23.53-17.28,26.3-34,53.04-54.88,76.82-1.94,2.21-13.26,6.44-.71,10.64-.38,.89-.57,1.96-1.18,2.66-8.6,9.7-9.64,22.26-13.93,37.63,24.94-20.38,35.46-50.47,63.61-65.36-3.19,7.57-3.01,12.72,6.67,12.13,9.35-.56,13.69,11.58,25.26,9.32,12.73-2.49,13.64-1.52,10.63-14.04-.78-3.24,13.85-11.58,18.98-10.11,1.29,.37,3.1,3.12,4.56,1.91,22.55-18.66,31.31,12.69,50.39,10.51,7.81-6.71,3.1-27.16,23.98-29.24-11.91,13.82-9.16,21.53,8.85,22.43,4.09,.2,4.32,4.35,3.61,6.7-1.85,6.07-3.45,1.06-5.86-.12-2.43-1.19-5.32,2.43-3.35,4.07,6.26,5.24,11.93,8.38,2.05,16.71-4.08,3.44,16.29,23.11,23.43,21.36,8.82-2.16,17.35-5.52,26.2-7.48,6.86-1.52,7.37-6.06,6.02-10.95-5.2-18.82-11.09-37.68-20.97-54.42-5.23-8.86-3.51-13.07,3.44-17.58,4.42-2.87,9.24-5.27,14.12-7.28,4.18-1.73,9.64-2.18,11.92,2.04,8.16,15.08,19.97,27.98,26.08,44.29,1.69,4.52,4.39,8.69,6.82,12.91,6.4,11.1,7.59,21.29-5.82,30.2,10.95-5.69,15.61,.79,19.68,7.88,3.07,5.35,7.77,8.09,13.05,10.9,16.56,8.79,33.24,17.71,36.14,39.34,.43,3.19,4.13,4.24,6.89,4.68,13.73,2.23,14.15,12.09,11.51,21.95-4.98,18.6-11.59,36.65-28.3,48.55-2.95,2.1-4.76,4.74-5.03,8.52,4.67,1.38,6.22-4.57,11.82-5.55-7.26,17.84-13.82,34.16-20.62,50.37-.63,1.5-2.81,3.25-4.32,3.3-4.87,.14-1.14-2.93-1.57-4.57-1.31-4.99-4.51-8.3-11.2-7.67,4.06,9.96,3.44,14-9.01,18.7-12.82,4.83-20.41-.77-26.82-5.93-14.08-11.33-28.01-23.39-42.47-33.82-14.42-10.39-20.74-24.65-28.81-38.34-4.08-6.93-8.5-13.02-16.01-10.16-6.85,2.61-18.68,2.54-16.63,15.58,.44,2.81-.7,5.87-2.98,5.88-12.08,.01-18.75,8.63-27.6,14.54-4.8,3.21-3.44,3.5-2.75,7.05,.96,4.94,1.23,9.5-6.91,9.19-6.68-.25-22.29,18.66-23.09,24.47-.76,5.55,1.03,7.53,6.01,6.48,9.31-1.96,19.58,.45,27.8-6.78,5.83-5.13,13.1-5.18,14.94,2.99,3.21,14.24,12.96,10.97,22.61,10.3-3.5,16.43-6.89,32.56-10.44,48.66-.38,1.7-2.09,3.09-2.57,4.79-1.66,5.91-14.34-1-10.7,6.91,3.78,8.21,5.58,18.58,14,24.15,5.38,3.56,10.95,6.52,10.43,14.41,6.48-2.67-.05-6.92,4.4-9.45,11.23,6.86,12.31,16.9,6.44,27.73-7.68,14.17-6.35,26.74,3.12,39.45,2.57,3.46,5.85,8.11,2.24,13.39-5.26-1.6-1.42-8.57-7.5-10.79-1.78,6.36-4.97,11.86-6.15,18.96-1.54,9.3-5.82,18.4-16.6,21.41-3.82,1.06-11.11,.5-7.5,6.8,3.33,5.82,6.96,16.89,16.84,11.44,8.62-4.76,18.54,.26,27.07-6.86,3.92-3.28,11.06,3.59,14.19,9.72,3.1,6.06,7.81,10.89,15.07,8.64,8.61-2.68,5.24-10.84,4.83-16.33-1.48-19.94,1.55-40.2-6.35-59.24-5.5,1.47-1.48,9.31-4.38,14.22-9.98-19.87-19.15-39.47-23.31-60.91-1.13-5.82-2.02-10.95-7.48-14.86-8.79-6.29,.14-14.19,.11-21.23-.01-3.25,9.56-.36,13.89,2.21,22.68,13.46,38.46,30.28,36.28,60.02-2.56,34.99,3.55,69.99,3.06,105.15-.25,18.32-6.25,34.05-13.28,50.05-2.82,6.42-9.04,11.68-6.51,20.11,.58,1.91,.47,5.88-4.47,5.32-9.73-1.1-18.72,1.88-27.4,6.09-2.46,1.19-7.85-2.92-7.3,3.4,.33,3.84,3.11,7.56,6.9,8.77,12.3,3.93,18.65,16.1,13,26.18-1.79,3.2-5.19,8.93-.59,8.5,4.08-.38,10.21,4.88,13.73-2.21,3.44-6.93,4.58-13.48,1.67-20.98-1.05-2.69-2.55-7.29,.64-9.42,3.1-2.07,7-2.04,10.86,.51,2.29,1.51,5.6,9.94,9,.55,5.24,3.18,8.75,6.87,7.55,14-1.51,9.02-3.66,17.91-4.92,27.03-2.32,16.78,2.83,29.57,11.06,43.61,6.66,11.35-3.05,25.03,.42,39.99-5.84-3.93-5.3-11.39-10.69-9.74-4.96,1.51-1.1,6.86-2.16,10.07-3.23,9.8,2.66,24.92-14.83,26.83-.6,11.95-9.87,22.63-6.3,34.91,3.71,12.77,2.25,25.27-.2,37.62-1.88,9.46-1.65,16.97,6.88,23.17,2.91,2.12,7.53,4.58-2.29,6.47-8.59,1.66-14.83,13.28-18.19,23.14-3.71,10.9-5.89,19.76-21.45,22.31-13.54,2.21-25.52,13.93-38.21,21.4-1.17,.69-2.53,1.04-3.88,1.58-2.5-3.88,1.42-6.58,1.17-9.77-.1-1.28-.7-2.96-1.66-3.65-1.91-1.37-4.16-.52-4.79,1.51-2.66,8.55-12.77,12.38-13.69,21.95l.42-.39c-14.82-.34-29.75-2.83-44.41,1.04,10.38,6.31,21.81,2.31,32.41,5.07l-.44-.31Zm-193.81-122.29c.25-1.38,.51-2.76,.76-4.13-4.06-4.71-.61-16.95-8.86-15.1-8.2,1.84-15.91,1.7-23.91,2.35-5.74,.47-11.12,4.67-17.35,2.01-4.04,9.47-10.28,18.14-10.2,29.08,.06,8.71,8.78,8.27,13.34,11.03,3.85,2.34,4.89-4.96,4.86-8.35-.12-13.22,7.53-17.53,19.1-17.99-3.53,6.76-6.33,14.05-10.81,20.11-3.78,5.12-3.69,8.29,.97,12.15,4.63,3.84,8.3,2.46,13-.47,11.57-7.21,17.13-17.72,19.1-30.69Zm299.53-175.99c1.37,16.53-2.78,31.58-9.59,46.06-1.36,2.9-1.97,5.89,.55,8.06,4.49,3.86,1.07,5.49-.87,9.08-9.38,17.4-16.68,35.57-13.42,56.89,5.04-2.57,4.97-14.2,8.46-9.74,9.2,11.74,8.01-1.09,10.3-3.4,2.95-2.98,4.03-7.44,9.01-8.86,8.67-2.48,10.61-10.1,12.89-18.01-6.27,1.69-11.79,3.18-19.8,5.34,17.29-29.37,32.28-57.08,2.47-85.43Zm-181.99-368.35c1.07-1.94,2.14-3.87,3.21-5.81-2.54-1.43-4.94-3.76-7.63-4.15-17.12-2.51-25.13-14.87-33.53-28.12-3.72-5.87-12.62-10.77-19.96-4.51-7.31,6.25-17.76,12.22-12.66,25.12,1.89,4.77,4.56,9.8,10.37,4.24,2.61-2.49,4.58-1.7,6.19-.2,15.94,14.86,37.15,3.47,54.01,13.42Zm94.83,67.83c-1.47,14.12,3.43,24.71,13.42,34.19,6.38,6.06,11.01,.85,13.42-1.53,3.49-3.44,7.9-12.43,4.39-14.51-10.33-6.11-18.07-17.45-31.22-18.16Zm-209.92-246.91c-5.18-.2-12.8-1.55-9.48,6.09,4.45,10.22-1.14,14.38-7.13,19.9-7.18,6.63-6.75,9.78,.11,14.27,3.55,2.32,3.7,5.54-.13,8.17-2.91,2-4.13,4.92-1.34,7.18,3.58,2.89,6.43,.18,7.86-3.16,2.02-4.7,8.7-8.26,5.66-14.14-6.74-13.01,3.59-20.65,8.53-29.97,1.18-2.23,6.11-2.53,4.4-6.31-1.81-4.01-5.65-2.74-8.48-2.03Zm26.43,347.03c5.74,2.3,9.05,11.51,17.79,4.83,2.26-1.73,6.71,.44,9.06,3.01,6.53,7.15,13.31,3.41,19.38,.03,3.7-2.06,10.3-4.35,7.34-10.53-2.18-4.58-7.18-3.25-11.59-1.82-13.59,4.41-27.41,7.25-41.99,4.49Zm250.3,353.73c.73,2.17-4.6,12.83,3.3,10.99,9.35-2.19,10.56-13.84,11.4-23.93,.59-7.07-5.84-10.26-7.13-9.86-10.14,3.14-9.18,11.78-7.57,22.81Zm-121.74-609.24c-12.8,.18-20.85,5.08-28.23,11.13-5.68,4.66,1.03,11.62-2.47,16.89,3.17,1.58,6.23,.65,7.57-2.12,4.86-10.05,13.58-16.8,23.13-25.89Zm16.42,393.86c5.27-7.88,19.43,7,21.08-8.49,.49-4.61-2.65-7.2-11.35-6.91-7.85,.26-8.27,8.31-9.73,15.4Zm-168.49-128.19c-1.21-9.3-9.16-15.69-6.95-25.64-2.35,8.58-9.13,10.63-16.6,13.31,10,.32,12.62,11.89,23.55,12.33Zm-67.63-27.17c-.5,8.83-.94,13.63,3.99,14.17,8.49,.93,17.16-.54,25.26,3.94,2.5,1.38,3.82-1.95,4.66-4.25,1.1-2.99,.67-6.07-1.37-8.15-2.71-2.76-3.75,1.57-5.65,2.01-9.01,2.1-19,10.05-26.89-7.73Zm59.34-414c-2.76-11.61-2.54-18.72,4.27-24.36,2.8-2.32-.26-7.28-1.67-6.15-5.74,4.63-11.88,9.93-14.98,16.38-3.66,7.61,5.04,8.35,12.37,14.13Zm-63.72,302.84c-3.58,1.11-8.38,2.29-6.77,6.06,1.96,4.58,5.96,8.9,11.57,9.8,3.11,.5,6.36-1.54,4.97-4.93-1.89-4.62-4.23-9.62-9.76-10.94Zm80.58,446.27c-7.24,11.75,.53,20.19,.99,28.98,.02,.46,2.52,1.38,3.58,1.08,2.07-.6,2.68-2.41,2.09-4.6-2.05-7.7-4.04-15.41-6.66-25.45Z"/><path class="cls-3" d="M2197.61,386.91c11.13-3.83,22.59-4.25,34.21-3.56,5.02,.3,4.84,.24,10.76,7.37,1.09,1.31,4.88,1.69,6.66,.86,5.48-2.56,10.58-5.91,15.88-8.98-.55,15.92,.47,16.75,15.03,9.19,4.68-2.43,9.13-1.82,14.49-3.16-15.59-11.56-28.83-26.8-49.86-29.26-2.06-.24-4.91-2.96-6.33,.29-5.89,13.46-14.82,3.94-20.63,1.41-6.7-2.92-3.01-11.82-1.3-16.62,2.24-6.32,6.97-10.93,16.5-11.17,7.91-.2,17.08-5.98,20.4-15.54,5.56-16.03,15.06-30.49,18.53-47.41,.6-2.91,.89-8.26,6.62-7.81,1.81,.14,5.2,5.24,5.66,8.55,1.93,13.9,16.46,23.67,35.05,23.58,2.89-.02,5.78,0,8.67,0,2.32,16.43-14.44,8.7-20.35,15.51,6.27,4.52,11.81-3.12,17.63,.99,2.29,5.23-8.72,6.31-5.06,11.12,4.28,5.62,9.74-.4,14.71-.73,7.74-.52,15.43-1.84,23.11-3.01,13.79-2.1,32.6-20.25,33.17-32.61,.31-6.6-.24-11.09,7.68-15.67,8.68-5.01,8.27-17.92,10.54-28.32,8.37,4.88,8.96,13.29,9.46,20.28,1.14,16.04,4.73,31.78,5.68,47.7,1.7,28.38-4.93,55.5-17.09,81.12-2.39,5.03-6.82,8.83-11.23,12.75-8.66,7.71-19.52,11.8-28.21,19.94-6.64,6.23-19.02,2.14-28.53-1.63-29.21-11.59-60.13-12.97-90.89-15.84-18.5-1.72-39.06,.49-50.94-19.32Z"/><path class="cls-3" d="M1976,434.05c-9.65-13.38-18.65-23.44-27.62-33.6-24.66-27.93-36.21-62.18-45.31-97.49-1.2-4.67-1.5-10.29,3.44-11.18,12.25-2.21,19.86-13.36,31.82-15.31,3.93-.64,5.8-2.38,7.63-5.62,8.26-14.56,24.62-18.5,37.46-26.71,5.42-3.47,14.63,3.53,19.85,8.36,15.7,14.5,30.3,29.81,48.89,41.3,11.96,7.4,16.61,22.88,24.5,34.73,1.85,2.78,3.42,6.88,6.1,7.07,20.37,1.44,10.09,10.84,4.01,17.09-16.02,16.47-32.6,32.46-55.26,39.91-22.42,7.37-43.14,17.27-55.5,41.44Zm-9.38-46.3c3.5-.52,4.8-.95,6.07-.87,6.09,.41,8.5,6.06,12.65,9.21,11.16,8.45,16.72,3.7,22.95-7.7,8.25-15.09-10.64-30.62,3.72-43.74,.1-.09-.27-1.09-.61-1.24-8.59-3.84-8.53-14.43-16.19-19.76-10.26-7.13-20.53-15.5-27.65-25.56-8.45-11.94-19.8-6.44-29.46-7.38-4.17-.41-12.6,11.68-9.13,15.49,5.31,5.81,6.93,13.71,12.76,18.53,12.77,10.56,18.58,25.28,24.63,39.91,1.48,3.58,3.51,7.14-.54,10.55-13.02,11-2.94,22.35,0,33.34,.66,2.45,3.63,6.79,7.67,5.02,3.51-1.54,5.93-4.55,5.42-9.36-.76-7.22-5.26-11.78-12.31-16.43Z"/><path class="cls-3" d="M2270.41,1421.44c26.18-4.19,52.07-9.55,77.47-17.36,7.57-2.33,15.41-5.61,24.07-1.71-36.7,13.27-74.15,23.2-113.56,24.48,0,0,.44,.31,.44,.31,4-2.04,8-4.08,11.99-6.12,0,0-.42,.39-.42,.39Z"/><path class="cls-3" d="M2478.7,555.77c11.88,8.53,19.94,19.06,21.29,37.88-13.1-12.36-16.05-25.86-21.29-37.88Z"/><path class="cls-3" d="M2353.1,462.13c10.48-6.73,20.85-7.84,33.22-1.16-11.69,4.73-20.86,19.4-33.22,1.16Z"/><path class="cls-3" d="M2064.59,1304.57c-7.95,10.68-15.44,6.17-22.87-.69,6.71-9.05,13.97-14.39,23.63-3.47-.26,1.41-.51,2.79-.76,4.17Z"/></g></svg>